{"accessors":[{"bufferView":0,"componentType":5126,"count":36,"max":[0.05999999865889549,0.699999988079071,1.0],"min":[-0.05999999865889549,-0.699999988079071,-1.0],"normalized":false,"type":"VEC3"},{"bufferView":1,"componentType":5126,"count":36,"max":[0.0,0.0,7.630093023180962e-05,-1.0],"min":[-1.0,-1.0,-1.0,-1.0],"normalized":false,"type":"VEC4"},{"bufferView":2,"componentType":5126,"count":36,"max":[1.0,1.0,1.0],"min":[-1.0,-1.0,-1.0],"normalized":false,"type":"VEC3"},{"bufferView":3,"componentType":5126,"count":36,"max":[1.0,1.0],"min":[0.0,0.0],"normalized":false,"type":"VEC2"},{"bufferView":4,"componentType":5121,"count":36,"max":[35],"min":[0],"normalized":false,"type":"SCALAR"},{"bufferView":5,"componentType":5126,"count":36,"max":[0.17499999701976776,0.8999999761581421,0.6499999761581421],"min":[-0.17499999701976776,-0.8999999761581421,-0.6499999761581421],"normalized":false,"type":"VEC3"},{"bufferView":6,"componentType":5126,"count":36,"max":[1.100000023841858,0.05999999865889549,0.4000000059604645],"min":[-1.100000023841858,-0.05999999865889549,-0.4000000059604645],"normalized":false,"type":"VEC3"},{"bufferView":7,"componentType":5126,"count":36,"max":[1.2000000476837158,0.05999999865889549,0.5],"min":[-1.2000000476837158,-0.05999999865889549,-0.5],"normalized":false,"type":"VEC3"},{"bufferView":8,"componentType":5126,"count":36,"max":[1.7999999523162842,0.09000000357627869,0.8999999761581421],"min":[-1.7999999523162842,-0.09000000357627869,-0.8999999761581421],"normalized":false,"type":"VEC3"},{"bufferView":9,"componentType":5126,"count":36,"max":[0.1599999964237213,0.38999998569488525,0.6000000238418579],"min":[-0.1599999964237213,-0.38999998569488525,-0.6000000238418579],"normalized":false,"type":"VEC3"},{"bufferView":10,"componentType":5126,"count":36,"max":[1.600000023841858,0.30000001192092896,0.22499999403953552],"min":[-1.600000023841858,-0.30000001192092896,-0.22499999403953552],"normalized":false,"type":"VEC3"},{"bufferView":11,"componentType":5126,"count":36,"max":[1.600000023841858,0.44999998807907104,0.05999999865889549],"min":[-1.600000023841858,-0.44999998807907104,-0.05999999865889549],"normalized":false,"type":"VEC3"},{"bufferView":12,"componentType":5126,"count":36,"max":[0.3499999940395355,0.02500000037252903,0.25],"min":[-0.3499999940395355,-0.02500000037252903,-0.25],"normalized":false,"type":"VEC3"},{"bufferView":13,"componentType":5126,"count":36,"max":[0.09000000357627869,0.15000000596046448,0.09000000357627869],"min":[-0.09000000357627869,-0.15000000596046448,-0.09000000357627869],"normalized":false,"type":"VEC3"},{"bufferView":14,"componentType":5126,"count":36,"max":[2.0,0.5,0.5],"min":[-2.0,-0.5,-0.5],"normalized":false,"type":"VEC3"},{"bufferView":15,"componentType":5126,"count":36,"max":[2.0,0.699999988079071,0.05000000074505806],"min":[-2.0,-0.699999988079071,-0.05000000074505806],"normalized":false,"type":"VEC3"},{"bufferView":16,"componentType":5126,"count":36,"max":[0.699999988079071,0.03999999910593033,0.32499998807907104],"min":[-0.699999988079071,-0.03999999910593033,-0.32499998807907104],"normalized":false,"type":"VEC3"},{"bufferView":17,"componentType":5126,"count":36,"max":[0.6499999761581421,1.2000000476837158,0.6000000238418579],"min":[-0.6499999761581421,-1.2000000476837158,-0.6000000238418579],"normalized":false,"type":"VEC3"},{"bufferView":18,"componentType":5126,"count":36,"max":[0.6000000238418579,0.699999988079071,0.44999998807907104],"min":[-0.6000000238418579,-0.699999988079071,-0.44999998807907104],"normalized":false,"type":"VEC3"},{"bufferView":19,"componentType":5126,"count":36,"max":[2.0,0.5,0.6000000238418579],"min":[-2.0,-0.5,-0.6000000238418579],"normalized":false,"type":"VEC3"},{"bufferView":20,"componentType":5126,"count":36,"max":[1.100000023841858,0.3499999940395355,0.6000000238418579],"min":[-1.100000023841858,-0.3499999940395355,-0.6000000238418579],"normalized":false,"type":"VEC3"},{"bufferView":21,"componentType":5126,"count":36,"max":[0.5,0.5,1.100000023841858],"min":[-0.5,-0.5,-1.100000023841858],"normalized":false,"type":"VEC3"},{"bufferView":22,"componentType":5126,"count":36,"max":[2.0,0.550000011920929,0.07999999821186066],"min":[-2.0,-0.550000011920929,-0.07999999821186066],"normalized":false,"type":"VEC3"},{"bufferView":23,"componentType":5126,"count":36,"max":[0.07999999821186066,0.550000011920929,1.100000023841858],"min":[-0.07999999821186066,-0.550000011920929,-1.100000023841858],"normalized":false,"type":"VEC3"},{"bufferView":24,"componentType":5126,"count":36,"max":[1.399999976158142,0.699999988079071,0.05999999865889549],"min":[-1.399999976158142,-0.699999988079071,-0.05999999865889549],"normalized":false,"type":"VEC3"}],"asset":{"generator":"Godot Engine v4.7.2.stable.steam@ed1daf0bf001b61586d9930840f2f1394092c079","version":"2.0"},"bufferViews":[{"buffer":0,"byteLength":432,"byteStride":12,"target":34962},{"buffer":0,"byteLength":576,"byteOffset":432,"byteStride":16,"target":34962},{"buffer":0,"byteLength":432,"byteOffset":1008,"byteStride":12,"target":34962},{"buffer":0,"byteLength":288,"byteOffset":1440,"byteStride":8,"target":34962},{"buffer":0,"byteLength":36,"byteOffset":1728,"target":34963},{"buffer":0,"byteLength":432,"byteOffset":1764,"byteStride":12,"target":34962},{"buffer":0,"byteLength":432,"byteOffset":2196,"byteStride":12,"target":34962},{"buffer":0,"byteLength":432,"byteOffset":2628,"byteStride":12,"target":34962},{"buffer":0,"byteLength":432,"byteOffset":3060,"byteStride":12,"target":34962},{"buffer":0,"byteLength":432,"byteOffset":3492,"byteStride":12,"target":34962},{"buffer":0,"byteLength":432,"byteOffset":3924,"byteStride":12,"target":34962},{"buffer":0,"byteLength":432,"byteOffset":4356,"byteStride":12,"target":34962},{"buffer":0,"byteLength":432,"byteOffset":4788,"byteStride":12,"target":34962},{"buffer":0,"byteLength":432,"byteOffset":5220,"byteStride":12,"target":34962},{"buffer":0,"byteLength":432,"byteOffset":5652,"byteStride":12,"target":34962},{"buffer":0,"byteLength":432,"byteOffset":6084,"byteStride":12,"target":34962},{"buffer":0,"byteLength":432,"byteOffset":6516,"byteStride":12,"target":34962},{"buffer":0,"byteLength":432,"byteOffset":6948,"byteStride":12,"target":34962},{"buffer":0,"byteLength":432,"byteOffset":7380,"byteStride":12,"target":34962},{"buffer":0,"byteLength":432,"byteOffset":7812,"byteStride":12,"target":34962},{"buffer":0,"byteLength":432,"byteOffset":8244,"byteStride":12,"target":34962},{"buffer":0,"byteLength":432,"byteOffset":8676,"byteStride":12,"target":34962},{"buffer":0,"byteLength":432,"byteOffset":9108,"byteStride":12,"target":34962},{"buffer":0,"byteLength":432,"byteOffset":9540,"byteStride":12,"target":34962},{"buffer":0,"byteLength":432,"byteOffset":9972,"byteStride":12,"target":34962}],"buffers":[{"byteLength":10404,"uri":"common_room_art0.bin"}],"extensionsUsed":["GODOT_single_root"],"materials":[{"name":"living_blockout_material","pbrMetallicRoughness":{"baseColorFactor":[0.0071944077499210835,0.23302197456359863,0.046964194625616074,1.0],"metallicFactor":0.0,"roughnessFactor":1.0}},{},{},{},{},{},{},{},{},{},{"name":"day1_story_blockout_material","pbrMetallicRoughness":{"baseColorFactor":[0.7874122262001038,0.11928018182516098,0.00489630876109004,1.0],"metallicFactor":0.0,"roughnessFactor":1.0}},{},{},{},{},{},{},{},{}],"meshes":[{"name":"Living_Entry_Wayfinding_Panel_Blockout2","primitives":[{"attributes":{"NORMAL":2,"POSITION":0,"TANGENT":1,"TEXCOORD_0":3},"indices":4,"material":0,"mode":4}]},{"name":"Living_Entry_Emergency_Cabinet_Blockout2","primitives":[{"attributes":{"NORMAL":2,"POSITION":5,"TANGENT":1,"TEXCOORD_0":3},"indices":4,"material":0,"mode":4}]},{"name":"Living_Common_Route_Light_Fixture_Blockout2","primitives":[{"attributes":{"NORMAL":2,"POSITION":6,"TANGENT":1,"TEXCOORD_0":3},"indices":4,"material":0,"mode":4}]},{"name":"Living_Common_Dining_Light_Fixture_Blockout2","primitives":[{"attributes":{"NORMAL":2,"POSITION":7,"TANGENT":1,"TEXCOORD_0":3},"indices":4,"material":1,"mode":4}]},{"name":"Living_Common_Lounge_Light_Fixture_Blockout2","primitives":[{"attributes":{"NORMAL":2,"POSITION":7,"TANGENT":1,"TEXCOORD_0":3},"indices":4,"material":2,"mode":4}]},{"name":"Living_Common_Table_Blockout2","primitives":[{"attributes":{"NORMAL":2,"POSITION":8,"TANGENT":1,"TEXCOORD_0":3},"indices":4,"material":3,"mode":4}]},{"name":"Living_Common_Table_West_Pedestal_Blockout2","primitives":[{"attributes":{"NORMAL":2,"POSITION":9,"TANGENT":1,"TEXCOORD_0":3},"indices":4,"material":4,"mode":4}]},{"name":"Living_Common_Table_East_Pedestal_Blockout2","primitives":[{"attributes":{"NORMAL":2,"POSITION":9,"TANGENT":1,"TEXCOORD_0":3},"indices":4,"material":5,"mode":4}]},{"name":"Living_Common_North_Seating_Blockout2","primitives":[{"attributes":{"NORMAL":2,"POSITION":10,"TANGENT":1,"TEXCOORD_0":3},"indices":4,"material":6,"mode":4}]},{"name":"Living_Common_South_Seating_Blockout2","primitives":[{"attributes":{"NORMAL":2,"POSITION":10,"TANGENT":1,"TEXCOORD_0":3},"indices":4,"material":7,"mode":4}]},{"name":"Living_Common_North_Seating_Backrest_Blockout2","primitives":[{"attributes":{"NORMAL":2,"POSITION":11,"TANGENT":1,"TEXCOORD_0":3},"indices":4,"material":8,"mode":4}]},{"name":"Living_Common_South_Seating_Backrest_Blockout2","primitives":[{"attributes":{"NORMAL":2,"POSITION":11,"TANGENT":1,"TEXCOORD_0":3},"indices":4,"material":9,"mode":4}]},{"name":"Living_Day1_Abandoned_Plate_Blockout2","primitives":[{"attributes":{"NORMAL":2,"POSITION":12,"TANGENT":1,"TEXCOORD_0":3},"indices":4,"material":0,"mode":4}]},{"name":"Living_Day1_Abandoned_Cup_Blockout2","primitives":[{"attributes":{"NORMAL":2,"POSITION":13,"TANGENT":1,"TEXCOORD_0":3},"indices":4,"material":10,"mode":4}]},{"name":"Living_Galley_Counter_Blockout2","primitives":[{"attributes":{"NORMAL":2,"POSITION":14,"TANGENT":1,"TEXCOORD_0":3},"indices":4,"material":11,"mode":4}]},{"name":"Living_Galley_Upper_Cabinet_Blockout2","primitives":[{"attributes":{"NORMAL":2,"POSITION":15,"TANGENT":1,"TEXCOORD_0":3},"indices":4,"material":12,"mode":4}]},{"name":"Living_Galley_Sink_Blockout2","primitives":[{"attributes":{"NORMAL":2,"POSITION":16,"TANGENT":1,"TEXCOORD_0":3},"indices":4,"material":0,"mode":4}]},{"name":"Living_Galley_Refrigeration_Blockout2","primitives":[{"attributes":{"NORMAL":2,"POSITION":17,"TANGENT":1,"TEXCOORD_0":3},"indices":4,"material":13,"mode":4}]},{"name":"Living_Galley_Waste_Station_Blockout2","primitives":[{"attributes":{"NORMAL":2,"POSITION":18,"TANGENT":1,"TEXCOORD_0":3},"indices":4,"material":0,"mode":4}]},{"name":"Living_Lounge_Sofa_Blockout2","primitives":[{"attributes":{"NORMAL":2,"POSITION":19,"TANGENT":1,"TEXCOORD_0":3},"indices":4,"material":14,"mode":4}]},{"name":"Living_Lounge_Coffee_Table_Blockout2","primitives":[{"attributes":{"NORMAL":2,"POSITION":20,"TANGENT":1,"TEXCOORD_0":3},"indices":4,"material":15,"mode":4}]},{"name":"Living_Lounge_East_Seating_Blockout2","primitives":[{"attributes":{"NORMAL":2,"POSITION":21,"TANGENT":1,"TEXCOORD_0":3},"indices":4,"material":16,"mode":4}]},{"name":"Living_Lounge_Sofa_Backrest_Blockout2","primitives":[{"attributes":{"NORMAL":2,"POSITION":22,"TANGENT":1,"TEXCOORD_0":3},"indices":4,"material":17,"mode":4}]},{"name":"Living_Lounge_East_Seating_Backrest_Blockout2","primitives":[{"attributes":{"NORMAL":2,"POSITION":23,"TANGENT":1,"TEXCOORD_0":3},"indices":4,"material":18,"mode":4}]},{"name":"Living_Lounge_Media_Panel_Blockout2","primitives":[{"attributes":{"NORMAL":2,"POSITION":24,"TANGENT":1,"TEXCOORD_0":3},"indices":4,"material":0,"mode":4}]}],"nodes":[{"children":[1,2,3],"name":"CommonRoomArt"},{"name":"Visual"},{"name":"ArtCollision"},{"children":[4],"name":"Blockout"},{"children":[5,8,12,23,29],"name":"Common_Room"},{"children":[6,7],"name":"Entry_Buffer"},{"mesh":0,"name":"Living_Entry_Wayfinding_Panel_Blockout2","translation":[10.180000305175781,2.0,-3.4000000953674316]},{"mesh":1,"name":"Living_Entry_Emergency_Cabinet_Blockout2","translation":[10.279999732971191,1.149999976158142,3.4000000953674316]},{"children":[9,10,11],"name":"Ceiling_Fixtures"},{"mesh":2,"name":"Living_Common_Route_Light_Fixture_Blockout2","translation":[15.0,5.420000076293945,0.0]},{"mesh":3,"name":"Living_Common_Dining_Light_Fixture_Blockout2","translation":[14.5,5.420000076293945,-4.300000190734863]},{"mesh":4,"name":"Living_Common_Lounge_Light_Fixture_Blockout2","translation":[15.5,5.420000076293945,4.800000190734863]},{"children":[13,14,15,16,17,18,19,20],"name":"Dining"},{"mesh":5,"name":"Living_Common_Table_Blockout2","translation":[15.0,0.7799999713897705,-3.5]},{"mesh":6,"name":"Living_Common_Table_West_Pedestal_Blockout2","translation":[14.0,0.38999998569488525,-3.5]},{"mesh":7,"name":"Living_Common_Table_East_Pedestal_Blockout2","translation":[16.0,0.38999998569488525,-3.5]},{"mesh":8,"name":"Living_Common_North_Seating_Blockout2","translation":[15.0,0.30000001192092896,-5.300000190734863]},{"mesh":9,"name":"Living_Common_South_Seating_Blockout2","translation":[15.0,0.30000001192092896,-2.0]},{"mesh":10,"name":"Living_Common_North_Seating_Backrest_Blockout2","translation":[15.0,0.7799999713897705,-5.5]},{"mesh":11,"name":"Living_Common_South_Seating_Backrest_Blockout2","translation":[15.0,0.7799999713897705,-1.7599999904632568]},{"children":[21,22],"name":"Living_Abandoned_Meal_Blockout"},{"mesh":12,"name":"Living_Day1_Abandoned_Plate_Blockout2","translation":[15.0,0.8949999809265137,-3.5]},{"mesh":13,"name":"Living_Day1_Abandoned_Cup_Blockout2","translation":[15.550000190734863,1.0199999809265137,-3.3499999046325684]},{"children":[24,25,26,27,28],"name":"Galley"},{"mesh":14,"name":"Living_Galley_Counter_Blockout2","translation":[12.800000190734863,0.5,-7.349999904632568]},{"mesh":15,"name":"Living_Galley_Upper_Cabinet_Blockout2","translation":[12.800000190734863,1.899999976158142,-7.800000190734863]},{"mesh":16,"name":"Living_Galley_Sink_Blockout2","translation":[12.5,1.0299999713897705,-7.25]},{"mesh":17,"name":"Living_Galley_Refrigeration_Blockout2","translation":[18.5,1.2000000476837158,-7.25]},{"mesh":18,"name":"Living_Galley_Waste_Station_Blockout2","translation":[16.899999618530273,0.699999988079071,-7.400000095367432]},{"children":[30,31,32,33,34,35],"name":"Lounge"},{"mesh":19,"name":"Living_Lounge_Sofa_Blockout2","translation":[14.0,0.5,6.900000095367432]},{"mesh":20,"name":"Living_Lounge_Coffee_Table_Blockout2","translation":[14.0,0.3499999940395355,4.800000190734863]},{"mesh":21,"name":"Living_Lounge_East_Seating_Blockout2","translation":[18.700000762939453,0.5,5.300000190734863]},{"mesh":22,"name":"Living_Lounge_Sofa_Backrest_Blockout2","translation":[14.0,1.0499999523162842,7.420000076293945]},{"mesh":23,"name":"Living_Lounge_East_Seating_Backrest_Blockout2","translation":[19.15999984741211,1.0499999523162842,5.300000190734863]},{"mesh":24,"name":"Living_Lounge_Media_Panel_Blockout2","translation":[17.399999618530273,2.0,7.800000190734863]}],"scene":0,"scenes":[{"nodes":[0]}]}