{
  "accessors": [
    {
      "bufferView": 2,
      "componentType": 5126,
      "count": 166,
      "max": [
        0.08089140057563782,
        0.023875998333096504,
        0.07027915120124817
      ],
      "min": [
        -0.07027915120124817,
        -0.023875998333096504,
        -0.07027915120124817
      ],
      "type": "VEC3"
    },
    {
      "bufferView": 2,
      "byteOffset": 1992,
      "componentType": 5126,
      "count": 166,
      "max": [
        0.999854564666748,
        1.0,
        0.9807840585708618
      ],
      "min": [
        -0.9807840585708618,
        -1.0,
        -0.9807840585708618
      ],
      "type": "VEC3"
    },
    {
      "bufferView": 3,
      "componentType": 5126,
      "count": 166,
      "max": [
        0.9807839393615723,
        1.0,
        0.9997184872627258,
        1.0
      ],
      "min": [
        -0.9807839393615723,
        -1.0,
        -0.9997166991233826,
        1.0
      ],
      "type": "VEC4"
    },
    {
      "bufferView": 1,
      "componentType": 5126,
      "count": 166,
      "max": [
        0.9616967439651489,
        0.976057767868042
      ],
      "min": [
        0.023942291736602783,
        0.024106979370117188
      ],
      "type": "VEC2"
    },
    {
      "bufferView": 1,
      "byteOffset": 1328,
      "componentType": 5126,
      "count": 166,
      "max": [
        0.9616967439651489,
        0.976057767868042
      ],
      "min": [
        0.023942291736602783,
        0.024106979370117188
      ],
      "type": "VEC2"
    },
    {
      "bufferView": 1,
      "byteOffset": 2656,
      "componentType": 5126,
      "count": 166,
      "max": [
        0.9616967439651489,
        0.976057767868042
      ],
      "min": [
        0.023942291736602783,
        0.024106979370117188
      ],
      "type": "VEC2"
    },
    {
      "bufferView": 1,
      "byteOffset": 3984,
      "componentType": 5126,
      "count": 166,
      "max": [
        0.9616967439651489,
        0.976057767868042
      ],
      "min": [
        0.023942291736602783,
        0.024106979370117188
      ],
      "type": "VEC2"
    },
    {
      "bufferView": 1,
      "byteOffset": 5312,
      "componentType": 5126,
      "count": 166,
      "max": [
        0.9616967439651489,
        0.976057767868042
      ],
      "min": [
        0.023942291736602783,
        0.024106979370117188
      ],
      "type": "VEC2"
    },
    {
      "bufferView": 0,
      "componentType": 5125,
      "count": 504,
      "type": "SCALAR"
    }
  ],
  "asset": {
    "extras": {
      "author": "lonesomeducky (https://sketchfab.com/lonesomeducky)",
      "license": "SKETCHFAB Standard (https://sketchfab.com/licenses)",
      "source": "https://sketchfab.com/3d-models/duct-tape-b7d56b4235a34c54899fa02ee92319f5",
      "title": "Duct Tape"
    },
    "generator": "Sketchfab-16.62.0",
    "version": "2.0"
  },
  "bufferViews": [
    {
      "buffer": 0,
      "byteLength": 2016,
      "name": "floatBufferViews",
      "target": 34963
    },
    {
      "buffer": 0,
      "byteLength": 6640,
      "byteOffset": 2016,
      "byteStride": 8,
      "name": "floatBufferViews",
      "target": 34962
    },
    {
      "buffer": 0,
      "byteLength": 3984,
      "byteOffset": 8656,
      "byteStride": 12,
      "name": "floatBufferViews",
      "target": 34962
    },
    {
      "buffer": 0,
      "byteLength": 2656,
      "byteOffset": 12640,
      "byteStride": 16,
      "name": "floatBufferViews",
      "target": 34962
    }
  ],
  "buffers": [
    {
      "byteLength": 15296,
      "uri": "scene.bin"
    }
  ],
  "images": [
    {
      "uri": "textures/DuctTape_MATERIAL_baseColor.png"
    },
    {
      "uri": "textures/DuctTape_MATERIAL_metallicRoughness.png"
    },
    {
      "uri": "textures/DuctTape_MATERIAL_normal.png"
    }
  ],
  "materials": [
    {
      "name": "DuctTape_MATERIAL",
      "normalTexture": {
        "index": 2
      },
      "occlusionTexture": {
        "index": 1
      },
      "pbrMetallicRoughness": {
        "baseColorTexture": {
          "index": 0
        },
        "metallicRoughnessTexture": {
          "index": 1
        }
      }
    }
  ],
  "meshes": [
    {
      "name": "Object_0",
      "primitives": [
        {
          "attributes": {
            "NORMAL": 1,
            "POSITION": 0,
            "TANGENT": 2,
            "TEXCOORD_0": 3,
            "TEXCOORD_1": 4,
            "TEXCOORD_2": 5,
            "TEXCOORD_3": 6,
            "TEXCOORD_4": 7
          },
          "indices": 8,
          "material": 0,
          "mode": 4
        }
      ]
    }
  ],
  "nodes": [
    {
      "children": [
        1
      ],
      "matrix": [
        -0.19922702014446259,
        -3.8412680783675483e-16,
        0.9799533486366272,
        0.0,
        0.011710562743246555,
        -0.9999285936355591,
        0.0023807871621099874,
        0.0,
        0.9798833727836609,
        0.011950122192501978,
        0.19921278953552246,
        0.0,
        0.0,
        0.0,
        0.0,
        1.0
      ],
      "name": "Sketchfab_model"
    },
    {
      "children": [
        2
      ],
      "name": "root"
    },
    {
      "children": [
        3
      ],
      "matrix": [
        1.0,
        0.0,
        0.0,
        0.0,
        0.0,
        2.220446049250313e-16,
        1.0,
        0.0,
        0.0,
        -1.0,
        2.220446049250313e-16,
        0.0,
        0.0,
        0.0,
        0.0,
        1.0
      ],
      "name": "GLTF_SceneRootNode"
    },
    {
      "children": [
        4
      ],
      "name": "DuctTape_0"
    },
    {
      "mesh": 0,
      "name": "Object_4"
    }
  ],
  "samplers": [
    {
      "magFilter": 9729,
      "minFilter": 9987,
      "wrapS": 10497,
      "wrapT": 10497
    }
  ],
  "scene": 0,
  "scenes": [
    {
      "name": "Sketchfab_Scene",
      "nodes": [
        0
      ]
    }
  ],
  "textures": [
    {
      "sampler": 0,
      "source": 0
    },
    {
      "sampler": 0,
      "source": 1
    },
    {
      "sampler": 0,
      "source": 2
    }
  ]
}
