{
  "accessors": [
    {
      "bufferView": 2,
      "componentType": 5126,
      "count": 3909,
      "max": [
        1.667907953262329,
        1.8019139766693115,
        5.274501800537109
      ],
      "min": [
        -3.1370179653167725,
        -2.2045910358428955,
        -0.01258699968457222
      ],
      "type": "VEC3"
    },
    {
      "bufferView": 2,
      "byteOffset": 46908,
      "componentType": 5126,
      "count": 3909,
      "max": [
        0.9987998604774475,
        0.9967511296272278,
        0.988944411277771
      ],
      "min": [
        -0.9967537522315979,
        -0.9984794855117798,
        -0.9973921179771423
      ],
      "type": "VEC3"
    },
    {
      "bufferView": 1,
      "componentType": 5126,
      "count": 3909,
      "max": [
        0.8356500267982483,
        0.9327020049095154
      ],
      "min": [
        0.08489800244569778,
        0.06581400334835052
      ],
      "type": "VEC2"
    },
    {
      "bufferView": 0,
      "componentType": 5125,
      "count": 22128,
      "type": "SCALAR"
    },
    {
      "bufferView": 2,
      "byteOffset": 93816,
      "componentType": 5126,
      "count": 462,
      "max": [
        1.381348967552185,
        1.5991859436035156,
        5.099837779998779
      ],
      "min": [
        -2.984833002090454,
        -2.0641849040985107,
        0.15639600157737732
      ],
      "type": "VEC3"
    },
    {
      "bufferView": 2,
      "byteOffset": 99360,
      "componentType": 5126,
      "count": 462,
      "max": [
        0.9824014902114868,
        0.9793254733085632,
        0.9764515161514282
      ],
      "min": [
        -0.9824015498161316,
        -0.9793287515640259,
        -0.9764532446861267
      ],
      "type": "VEC3"
    },
    {
      "bufferView": 1,
      "byteOffset": 31272,
      "componentType": 5126,
      "count": 462,
      "max": [
        3.837975025177002,
        0.48972299695014954
      ],
      "min": [
        3.1701409816741943,
        0.01869799941778183
      ],
      "type": "VEC2"
    },
    {
      "bufferView": 0,
      "byteOffset": 88512,
      "componentType": 5125,
      "count": 2400,
      "type": "SCALAR"
    },
    {
      "bufferView": 2,
      "byteOffset": 104904,
      "componentType": 5126,
      "count": 129,
      "max": [
        0.6466240286827087,
        -0.5795459747314453,
        2.7724449634552
      ],
      "min": [
        0.45118600130081177,
        -0.7039269804954529,
        2.610093116760254
      ],
      "type": "VEC3"
    },
    {
      "bufferView": 2,
      "byteOffset": 106452,
      "componentType": 5126,
      "count": 129,
      "max": [
        0.9160051345825195,
        0.23935799300670624,
        0.9851527810096741
      ],
      "min": [
        -0.9160078763961792,
        -0.992767870426178,
        -0.534464955329895
      ],
      "type": "VEC3"
    },
    {
      "bufferView": 1,
      "byteOffset": 34968,
      "componentType": 5126,
      "count": 129,
      "max": [
        4.466119766235352,
        0.30564001202583313
      ],
      "min": [
        4.4478302001953125,
        0.2876729965209961
      ],
      "type": "VEC2"
    },
    {
      "bufferView": 0,
      "byteOffset": 98112,
      "componentType": 5125,
      "count": 720,
      "type": "SCALAR"
    }
  ],
  "asset": {
    "extras": {
      "author": "Jeant_220 (https://sketchfab.com/juanfranciscotorresvicuna)",
      "license": "CC-BY-4.0 (http://creativecommons.org/licenses/by/4.0/)",
      "source": "https://sketchfab.com/3d-models/leather-journal-18f2248f31e6497f8e8bd9fd517f0137",
      "title": "Leather journal"
    },
    "generator": "Sketchfab-12.66.0",
    "version": "2.0"
  },
  "bufferViews": [
    {
      "buffer": 0,
      "byteLength": 100992,
      "name": "floatBufferViews",
      "target": 34963
    },
    {
      "buffer": 0,
      "byteLength": 36000,
      "byteOffset": 100992,
      "byteStride": 8,
      "name": "floatBufferViews",
      "target": 34962
    },
    {
      "buffer": 0,
      "byteLength": 108000,
      "byteOffset": 136992,
      "byteStride": 12,
      "name": "floatBufferViews",
      "target": 34962
    }
  ],
  "buffers": [
    {
      "byteLength": 244992,
      "uri": "scene.bin"
    }
  ],
  "images": [
    {
      "uri": "textures/aiStandardSurface1SG_baseColor.png"
    },
    {
      "uri": "textures/aiStandardSurface1SG_metallicRoughness.png"
    },
    {
      "uri": "textures/aiStandardSurface2SG_baseColor.png"
    },
    {
      "uri": "textures/aiStandardSurface2SG_metallicRoughness.png"
    },
    {
      "uri": "textures/aiStandardSurface3SG_baseColor.png"
    },
    {
      "uri": "textures/aiStandardSurface3SG_metallicRoughness.png"
    }
  ],
  "materials": [
    {
      "doubleSided": true,
      "name": "aiStandardSurface1SG",
      "pbrMetallicRoughness": {
        "baseColorTexture": {
          "index": 0
        },
        "metallicFactor": 0.0,
        "metallicRoughnessTexture": {
          "index": 1
        }
      }
    },
    {
      "doubleSided": true,
      "name": "aiStandardSurface2SG",
      "pbrMetallicRoughness": {
        "baseColorTexture": {
          "index": 2
        },
        "metallicFactor": 0.0,
        "metallicRoughnessTexture": {
          "index": 3
        }
      }
    },
    {
      "doubleSided": true,
      "name": "aiStandardSurface3SG",
      "pbrMetallicRoughness": {
        "baseColorTexture": {
          "index": 4
        },
        "metallicRoughnessTexture": {
          "index": 5
        },
        "roughnessFactor": 0.634048057688683
      }
    }
  ],
  "meshes": [
    {
      "name": "Object_0",
      "primitives": [
        {
          "attributes": {
            "NORMAL": 1,
            "POSITION": 0,
            "TEXCOORD_0": 2
          },
          "indices": 3,
          "material": 0,
          "mode": 4
        }
      ]
    },
    {
      "name": "Object_1",
      "primitives": [
        {
          "attributes": {
            "NORMAL": 5,
            "POSITION": 4,
            "TEXCOORD_0": 6
          },
          "indices": 7,
          "material": 1,
          "mode": 4
        }
      ]
    },
    {
      "name": "Object_2",
      "primitives": [
        {
          "attributes": {
            "NORMAL": 9,
            "POSITION": 8,
            "TEXCOORD_0": 10
          },
          "indices": 11,
          "material": 2,
          "mode": 4
        }
      ]
    }
  ],
  "nodes": [
    {
      "children": [
        1
      ],
      "matrix": [
        1.0,
        0.0,
        0.0,
        0.0,
        0.0,
        2.220446049250313e-16,
        -1.0,
        0.0,
        0.0,
        1.0,
        2.220446049250313e-16,
        0.0,
        0.0,
        0.0,
        0.0,
        1.0
      ],
      "name": "Sketchfab_model"
    },
    {
      "children": [
        2,
        3,
        4
      ],
      "name": "just journals smoothed.obj.cleaner.materialmerger.gles"
    },
    {
      "mesh": 0,
      "name": "Object_2"
    },
    {
      "mesh": 1,
      "name": "Object_3"
    },
    {
      "mesh": 2,
      "name": "Object_4"
    }
  ],
  "samplers": [
    {
      "magFilter": 9729,
      "minFilter": 9987,
      "wrapS": 10497,
      "wrapT": 10497
    }
  ],
  "scene": 0,
  "scenes": [
    {
      "name": "Sketchfab_Scene",
      "nodes": [
        0
      ]
    }
  ],
  "textures": [
    {
      "sampler": 0,
      "source": 0
    },
    {
      "sampler": 0,
      "source": 1
    },
    {
      "sampler": 0,
      "source": 2
    },
    {
      "sampler": 0,
      "source": 3
    },
    {
      "sampler": 0,
      "source": 4
    },
    {
      "sampler": 0,
      "source": 5
    }
  ]
}
